<?xml version="1.0" encoding="utf-8"?>
<!-- Generator: Adobe Illustrator 21.1.0, SVG Export Plug-In . SVG Version: 6.00 Build 0)  -->
<svg version="1.1" id="Layer_1" xmlns="http://www.w3.org/2000/svg" xmlns:xlink="http://www.w3.org/1999/xlink" x="0px" y="0px"
	 viewBox="0 0 375 200" style="enable-background:new 0 0 375 200;" xml:space="preserve">
<style type="text/css">
	.st0{fill:#DEDFDE;}
	.st1{fill:none;stroke:#199EDD;stroke-width:3.132;stroke-miterlimit:10;}
	.st2{fill:#E9E9EA;}
	.st3{fill:none;stroke:#199EDD;stroke-width:4.971;stroke-miterlimit:10;}
	.st4{fill:none;stroke:#199EDD;stroke-width:3.151;stroke-miterlimit:10;}
	.st5{fill:#C7C7C6;}
	.st6{fill:#FFFFFF;}
	.st7{fill:none;stroke:#E9E9EA;stroke-width:9.023;stroke-miterlimit:10;}
	.st8{fill:#20CB9A;}
	.st9{fill:#199EDD;}
	.st10{fill:#60B042;}
	.st11{fill:#BD6FAE;}
	.st12{fill:#ACACAC;}
	.st13{fill:#979797;}
</style>
<path class="st0" d="M126.2,33.9h52.2v69.3h-52.2V33.9z"/>
<path class="st1" d="M136.3,33.9v65.6 M145.3,33.9v65.6"/>
<path class="st2" d="M155.6,146.3l-44.7-44.7L178.5,34l44.1,44.1L155.6,146.3z"/>
<path class="st3" d="M118.3,94.2l48.7,48.7"/>
<path class="st4" d="M125,87.4l48.7,48.7"/>
<circle class="st5" cx="211.2" cy="122.2" r="60.3"/>
<circle class="st6" cx="205" cy="117.8" r="59.4"/>
<ellipse transform="matrix(0.1602 -0.9871 0.9871 0.1602 55.8621 301.3472)" class="st7" cx="205" cy="117.8" rx="41.8" ry="41.8"/>
<path class="st7" d="M0,0"/>
<path class="st8" d="M199.7,149.8l-16.9-16.9v16.9H199.7z"/>
<path class="st8" d="M194.7,90.8l11.3,11.3V90.8H194.7z M205.9,102l11.3,11.3V102H205.9z"/>
<circle class="st9" cx="189.7" cy="104.6" r="7"/>
<path class="st10" d="M189.7,102l2.6,2.6l-2.6,2.6l-2.6-2.6L189.7,102z"/>
<path class="st11" d="M224.2,90.3c0-3.9-3.1-7-7-7v14C221.1,97.3,224.2,94.1,224.2,90.3z"/>
<path class="st12" d="M77.5,105.9h-21c-1.6,0-2.9-1.3-2.9-2.9V86.3h26.8v16.7C80.5,104.6,79.2,105.9,77.5,105.9z"/>
<path class="st8" d="M295.5,81.9l-12.1-12.1v12.1H295.5z"/>
<path class="st8" d="M326.1,50.7L314,62.8h12.1V50.7z"/>
<circle class="st13" cx="39.7" cy="104.1" r="1.5"/>
<circle class="st13" cx="96.5" cy="126.6" r="1.5"/>
<circle class="st13" cx="70.7" cy="119.1" r="1.5"/>
<circle class="st13" cx="96.5" cy="62.8" r="1.5"/>
<path class="st11" d="M336.8,127.8c0-4.1-3.4-7.5-7.5-7.5v15C333.4,135.3,336.8,131.9,336.8,127.8z"/>
<circle class="st0" cx="67.1" cy="86.8" r="13.4"/>
<circle class="st6" cx="67.1" cy="86.8" r="10.3"/>
<circle class="st13" cx="64" cy="83" r="0.8"/>
<circle class="st13" cx="70.1" cy="83" r="0.8"/>
<circle class="st13" cx="64" cy="90.5" r="0.8"/>
<circle class="st13" cx="70.1" cy="90.5" r="0.8"/>
<circle class="st13" cx="60.8" cy="86.7" r="0.8"/>
<circle class="st13" cx="66.9" cy="86.7" r="0.8"/>
<circle class="st13" cx="73.2" cy="86.7" r="0.8"/>
<rect x="230.2" y="125.1" class="st9" width="25" height="27.3"/>
</svg>

