<?xml version="1.0" encoding="UTF-8"?>
<svg width="1440px" height="440px" viewBox="0 0 1440 440" version="1.1" xmlns="http://www.w3.org/2000/svg" xmlns:xlink="http://www.w3.org/1999/xlink">
    <!-- Generator: Sketch 62 (91390) - https://sketch.com -->
    <title>Group 8</title>
    <desc>Created with Sketch.</desc>
    <g id="Page-1" stroke="none" stroke-width="1" fill="none" fill-rule="evenodd">
        <g id="homepage-desktop" transform="translate(0.000000, -4622.000000)" fill="#FFBFBF">
            <g id="bg-copy-2" transform="translate(0.000000, 4622.000000)">
                <g id="Group-8" transform="translate(-152.000000, 0.000000)">
                    <path d="M419.926103,0 L310,440 L443.848191,440 L622,0 L419.926103,0 Z M0,0 L0,440 L4.17447744,440 L201.702756,20.0642544 L88.6232679,440 L224.045093,440 L416,0 L0,0 Z" id="Fill-2"></path>
                    <path d="M1637.54411,0 L1440.42864,419.308462 L1553.2683,0 L1417.83408,0 L1226,440 L1440.74819,440 L1440.42864,439.571503 L1440.98341,440 L1642,440 L1642,0 L1637.54411,0 Z M1198.09412,0 L1020,440 L1222.1112,440 L1332,0 L1198.09412,0 Z" id="Fill-3"></path>
                </g>
            </g>
        </g>
    </g>
</svg>