<svg width="18" height="22" xmlns="http://www.w3.org/2000/svg"><path d="M17.999 8.189a1.312 1.312 0 10-2.624 0v5.496a1.312 1.312 0 102.625 0l-.001-5.496zM3.134 7.126l.002 8.517c0 .775.626 1.4 1.4 1.4l.954.001.001 2.908a1.313 1.313 0 002.625 0l-.001-2.908h1.772v2.907a1.313 1.313 0 002.625 0v-2.908h.957a1.4 1.4 0 001.4-1.401V7.124l-11.735.002zm8.557-2.6a.495.495 0 11-.001-.99.495.495 0 010 .99zm-5.383.002a.496.496 0 11.003-.992.496.496 0 01-.003.992zm5.588-2.585L12.812.27a.183.183 0 00-.072-.248.182.182 0 00-.247.073l-.925 1.69a6.297 6.297 0 00-2.572-.54 6.3 6.3 0 00-2.565.537L5.505.097a.18.18 0 00-.247-.073.18.18 0 00-.072.247l.916 1.671c-1.8.929-3.017 2.697-3.016 4.728l11.822-.002c0-2.03-1.214-3.794-3.012-4.725zM1.312 6.878C.588 6.878 0 7.466 0 8.191l.001 5.496a1.312 1.312 0 102.625 0V8.19c0-.724-.589-1.312-1.314-1.312z" fill="currentColor" fill-rule="evenodd"></path></svg>