<svg width="16" height="20" xmlns="http://www.w3.org/2000/svg"><path d="M13.364 10.458c.025 2.978 2.604 3.962 2.636 3.973-.015.07-.404 1.42-1.371 2.793-.808 1.208-1.655 2.389-2.999 2.41-1.306.03-1.745-.768-3.243-.768-1.512 0-1.98.747-3.232.799-1.28.047-2.259-1.29-3.096-2.487C.386 14.733-.917 10.289.829 7.265c.847-1.483 2.39-2.438 4.04-2.463 1.282-.027 2.471.865 3.259.865.772 0 2.243-1.067 3.76-.907.634.019 2.44.25 3.604 1.949-.094.056-2.15 1.265-2.128 3.75zm-2.467-7.306c-.703.83-1.828 1.464-2.923 1.382-.144-1.12.411-2.31 1.033-3.035C9.709.675 10.929.043 11.904 0c.128 1.163-.333 2.31-1.007 3.152z" fill="currentColor"></path></svg>