<svg xmlns="http://www.w3.org/2000/svg" xmlns:xlink="http://www.w3.org/1999/xlink" width="16" height="16" viewBox="0 0 16 16">
    <defs>
        <path id="a" d="M0 0h2.616l.647 2.677 3.104-.015H16l-1.951 8.308H3.803L1.544 1.262H0V0zm14.687 13.976c0 .846-.716 1.531-1.6 1.531-.884 0-1.6-.685-1.6-1.531 0-.846.716-1.532 1.6-1.532.884 0 1.6.686 1.6 1.532zm-7.658 0c0 .846-.716 1.531-1.6 1.531-.884 0-1.6-.685-1.6-1.531 0-.846.716-1.532 1.6-1.532.884 0 1.6.686 1.6 1.532z"/>
    </defs>
    <use fill="#000000" fill-rule="evenodd" xlink:href="#a"/>
</svg>