<?xml version="1.0" encoding="utf-8"?>
<!-- Generator: Adobe Illustrator 21.1.0, SVG Export Plug-In . SVG Version: 6.00 Build 0)  -->
<svg xmlns="http://www.w3.org/2000/svg" xmlns:xlink="http://www.w3.org/1999/xlink" x="0px" y="0px"
	 viewBox="0 0 645 432" style="enable-background:new 0 0 645 432;" xml:space="preserve">
<style type="text/css">
	.st0{fill:#ffd700;}
</style>
<title>Group 30</title>
<desc>Created with Sketch.</desc>
<g id="Page-1">
	<g id="homepage-desktop" transform="translate(-160.000000, -2890.000000)">
		<g id="Group-18-Copy" transform="translate(160.000000, 2882.000000)">
			<g id="Group-30" transform="translate(16.000000, 16.000000)">
				<g id="Group-18" transform="translate(399.000000, 80.000000)">
					<path id="Fill-16" class="st0" d="M9.4,165.9c-27.7-5.8-45.5-31.7-39.9-57.8c5.7-26.1,32.7-42.6,60.4-36.8
						c27.7,5.8,45.5,31.7,39.9,57.8C64.1,155.2,37.1,171.7,9.4,165.9z"/>
					<path id="Fill-18" class="st0" d="M227.9,269.4c-11.1,51.4-64.3,83.8-118.7,72.4c-54.4-11.4-89.5-62.3-78.4-113.7
						c11.1-51.4,64.3-83.8,118.7-72.4C204,167.1,239.1,218,227.9,269.4"/>
					<path id="Fill-21" class="st0" d="M63.8,58.6c-18.2-3.8-30-20.9-26.3-38.1c3.7-17.2,21.5-28,39.7-24.2
						c18.2,3.8,30,20.9,26.3,38.1C99.8,51.6,82,62.4,63.8,58.6z"/>
					<path id="Fill-23" class="st0" d="M-23.9,237.6c-13.9-2.9-22.9-15.9-20.1-29.1c2.8-13.1,16.4-21.4,30.4-18.5
						C0.4,192.9,9.3,205.9,6.5,219C3.6,232.2-9.9,240.5-23.9,237.6z"/>
					<path id="Fill-23_1_" class="st0" d="M-29.4,17.2c-13.9-2.9-22.9-15.9-20.1-29.1C-46.6-25-33-33.3-19.1-30.4
						C-5.1-27.5,3.8-14.5,1-1.3C-1.8,11.8-15.4,20.1-29.4,17.2z"/>
				</g>
			</g>
		</g>
	</g>
</g>
</svg>
