<svg style="margin-bottom:-6px;" width="24px" height="24px" viewBox="0 0 24 24" xmlns="http://www.w3.org/2000/svg"><path fill="none" d="M0 0h24v24H0z"></path><path fill="#fff" d="M21 18.28L19.8 7h-2.74c0-2.79-2.27-5.06-5.06-5.06-2.79 0-5.06 2.27-5.06 5.06H4.2L3 18.28v-.02c-.12 1.39.91 2.61 2.29 2.73.12.01.24.02.35.01h12.72c1.39.07 2.57-.99 2.64-2.38.01-.12.01-.24 0-.36v.02zM12 4.5c1.4 0 2.54 1.12 2.56 2.52L9.44 7v.02C9.46 5.62 10.6 4.5 12 4.5zM8.12 12c-.83 0-1.5-.67-1.5-1.5S7.29 9 8.12 9s1.5.67 1.5 1.5-.67 1.5-1.5 1.5zm7.76 0c-.83 0-1.5-.67-1.5-1.5s.67-1.5 1.5-1.5 1.5.67 1.5 1.5-.67 1.5-1.5 1.5zm0 0"></path></svg>