<svg viewBox="0 0 24 24" width="24" height="24" class="rtlIcon" xmlns="http://www.w3.org/2000/svg"><path fill="none" d="M0 0h24v24H0z"></path><path fill="#fff" d="M2.258 5.278l3.02-3.02a.898.898 0 0 1 1.273 0l1.303 1.303a.497.497 0 0 1 0 .707L4.268 7.854h-.001a.51.51 0 0 1-.706 0L2.258 6.551a.901.901 0 0 1 0-1.273zm.596 3.283c.283.283.66.439 1.06.439a1.49 1.49 0 0 0 1.061-.439l3.586-3.586A1.49 1.49 0 0 0 9 3.914c0-.4-.156-.777-.439-1.06L7.258 1.551a1.9 1.9 0 0 0-2.687 0l-3.02 3.02a1.902 1.902 0 0 0 0 2.687l1.303 1.303zM14.5 1c.827 0 1.5.673 1.5 1.5S15.327 4 14.5 4 13 3.327 13 2.5 13.673 1 14.5 1zm0 4C15.879 5 17 3.879 17 2.5 17 1.122 15.879 0 14.5 0A2.503 2.503 0 0 0 12 2.5C12 3.879 13.122 5 14.5 5zm-2.507 14.583a.497.497 0 0 1-.491.417l-.086-.007a.492.492 0 0 1-.322-.202.494.494 0 0 1-.087-.374l.867-5.2a.499.499 0 0 0-.323-.552l-4.958-1.8A.91.91 0 0 1 6 11c0-.28.119-.549.341-.753l3.953-3.954a.98.98 0 0 1 .559-.275l.184-.011c.288.026.501.117.725.333l5.027 3.752a.502.502 0 0 1 .115.703.513.513 0 0 1-.697.11l-3.696-2.689a1.097 1.097 0 0 0-1.425.112l-1.749 1.749c-.279.28-.394.677-.308 1.062.085.386.358.697.729.831l2.913 1.06a.5.5 0 0 1 .322.552l-1 6.001zm1.02-7.493L10.1 11.031a.143.143 0 0 1-.095-.109.143.143 0 0 1 .04-.138l1.749-1.749a.101.101 0 0 1 .129-.01l3.695 2.688c.643.468 1.627.314 2.095-.331.236-.324.331-.721.268-1.116a1.493 1.493 0 0 0-.599-.979l-4.968-3.701c-.335-.335-.769-.528-1.333-.577l-.341.016a1.978 1.978 0 0 0-1.154.561L5.651 9.524A2.014 2.014 0 0 0 5 11.019c0 .797.503 1.514 1.252 1.786l4.568 1.658-.799 4.79a1.499 1.499 0 1 0 2.959.494l1-6.001a1.5 1.5 0 0 0-.967-1.656zM18 12.5a.5.5 0 0 1 .5-.5.5.5 0 0 0 .5-.5.5.5 0 0 1 1 0c0 .827-.673 1.5-1.5 1.5a.5.5 0 0 1-.5-.5zM19.5 23c-1.929 0-3.5-1.57-3.5-3.5a3.49 3.49 0 0 1 1.712-2.992l1.327 3.185a.5.5 0 0 0 .923-.385l-1.328-3.186c.279-.072.565-.122.866-.122 1.93 0 3.5 1.57 3.5 3.5S21.43 23 19.5 23zm0-8c-.437 0-.851.082-1.25.199l-.788-1.891a.502.502 0 0 0-.365-.299.503.503 0 0 0-.45.138l-2 2a.5.5 0 0 0 .707.707l1.472-1.472.501 1.202C15.947 16.354 15 17.811 15 19.5c0 2.482 2.019 4.5 4.5 4.5 2.482 0 4.5-2.018 4.5-4.5 0-2.481-2.018-4.5-4.5-4.5zM5.383 19l1.319-2.198A3.478 3.478 0 0 1 7.949 19H5.383zM4.5 23C2.57 23 1 21.43 1 19.5S2.57 16 4.5 16c.48 0 .937.098 1.353.273l-1.782 2.97A.502.502 0 0 0 4.5 20h3.449c-.245 1.692-1.691 3-3.449 3zm2.72-7.061l.709-1.182a.501.501 0 0 0-.858-.514l-.705 1.175A4.45 4.45 0 0 0 4.5 15 4.505 4.505 0 0 0 0 19.5C0 21.982 2.019 24 4.5 24 6.982 24 9 21.982 9 19.5c0-1.455-.705-2.738-1.78-3.561z"></path></svg>