<svg style="margin-top: 5px;" viewBox="0 0 24 24" width="24" height="24" xmlns="http://www.w3.org/2000/svg"><path fill="none" d="M0 0h24v24H0z"></path><path d="M14.98 16.322a.437.437 0 0 1-.04.349c-.598 1.04-1.698 1.662-2.94 1.662s-2.342-.621-2.941-1.662a.437.437 0 0 1-.04-.348.454.454 0 0 1 .225-.27.483.483 0 0 1 .627.179c.431.75 1.227 1.197 2.13 1.197.9 0 1.696-.448 2.128-1.197a.483.483 0 0 1 .626-.179c.11.059.19.154.225.27zM6.75 7c.965 0 1.75.785 1.75 1.75s-.785 1.75-1.75 1.75S5 9.715 5 8.75 5.785 7 6.75 7zM17.2 7c.993 0 1.8.807 1.8 1.8s-.807 1.8-1.8 1.8-1.8-.807-1.8-1.8.807-1.8 1.8-1.8zm5.8 5c0-6.065-4.934-11-11-11S1 5.935 1 12s4.934 11 11 11 11-4.935 11-11m1 0c0 6.617-5.383 12-12 12S0 18.617 0 12 5.383 0 12 0s12 5.383 12 12" fill="#fff"></path></svg>