<svg width="200" height="200" xmlns="http://www.w3.org/2000/svg" xmlns:xlink="http://www.w3.org/1999/xlink" viewBox="0 0 24 24"><g><path fill="none" d="M.3.3h23.5v23.5H.3V.3z"></path><path fill="none" d="M2.5 5.4l3-3c.3-.3.9-.3 1.2.0.0.0.0.0.0.0L8 3.7c.2.2.2.5.0.7.0.0.0.0.0.0L4.4 7.9h0c-.2.2-.5.2-.7.0L2.5 6.7C2.1 6.3 2.1 5.8 2.5 5.4v0zM3.1 8.6c.3.3.6.4 1 .4.4.0.8-.2 1-.4l3.5-3.5c.3-.3.4-.6.4-1 0-.4-.2-.8-.4-1L7.4 1.8c-.7-.7-1.9-.7-2.6.0l-3 3c-.7.7-.7 1.9.0 2.6L3.1 8.6v0zM14.4 1.2c.8.0 1.5.7 1.5 1.5s-.7 1.5-1.5 1.5c-.8.0-1.5-.7-1.5-1.5S13.6 1.2 14.4 1.2zm0 4c1.3.0 2.4-1.1 2.4-2.4.0-1.3-1.1-2.4-2.4-2.4-1.3.0-2.4 1.1-2.4 2.4C12 4.1 13.1 5.2 14.4 5.2zM12 19.4c0 .2-.2.4-.5.4h-.1c-.1.0-.2-.1-.3-.2C11 19.5 11 19.4 11 19.2l.8-5.1c0-.2-.1-.5-.3-.5l-4.8-1.8c-.4-.1-.6-.5-.6-.8.0-.3.1-.5.3-.7l3.9-3.9c.1-.1.3-.2.5-.3h.2c.3.0.5.1.7.3l4.9 3.7c.2.2.3.5.1.7.0.0.0.0.0.0-.2.2-.5.3-.7.1l-3.6-2.6c-.4-.3-1-.3-1.4.1l-1.7 1.7c-.3.3-.4.7-.3 1 .1.4.3.7.7.8l2.8 1c.2.1.4.3.3.5L12 19.4v0zM13 12.1l-2.8-1c0 0-.1-.1-.1-.1.0.0.0-.1.0-.1l1.7-1.7c0 0 .1.0.1.0l3.6 2.6c.6.5 1.6.3 2-.3.2-.3.3-.7.3-1.1-.1-.4-.3-.7-.6-1l-4.9-3.6c-.3-.3-.8-.5-1.3-.6h-.3c-.4.1-.8.2-1.1.5L5.8 9.6C5.4 9.9 5.2 10.5 5.2 11c0 .8.5 1.5 1.2 1.7l4.5 1.6-.8 4.7c-.1.8.4 1.6 1.2 1.7.8.1 1.6-.4 1.7-1.2v0l1-5.9C14.1 13 13.7 12.3 13 12.1zM17.9 12.5c0-.3.2-.5.5-.5.3.0.5-.2.5-.5.0-.3.2-.5.5-.5s.5.2.5.5c0 .8-.7 1.5-1.5 1.5C18.1 13 17.9 12.7 17.9 12.5zM19.3 22.7c-1.9.0-3.4-1.5-3.4-3.4.0-1.2.6-2.3 1.7-2.9l1.3 3.1c.1.2.4.4.6.3.2-.1.4-.4.3-.6L18.5 16c.3-.1.6-.1.8-.1 1.9.0 3.4 1.5 3.4 3.4S21.2 22.7 19.3 22.7zM19.3 14.9c-.4.0-.8.1-1.2.2l-.8-1.8C17.3 13.1 17.1 13 17 13c-.2.0-.3.0-.4.1l-2 2c-.2.2-.2.5.0.7.2.2.5.2.7.0l1.4-1.4.5 1.2c-1.3.8-2.3 2.2-2.3 3.8.0 2.4 2 4.4 4.4 4.4 2.4.0 4.4-2 4.4-4.4C23.7 16.9 21.8 14.9 19.3 14.9zM5.5 18.8l1.3-2.1C7.5 17.2 7.9 18 8 18.8H5.5zM4.7 22.7c-1.9.0-3.4-1.5-3.4-3.4s1.5-3.4 3.4-3.4c.5.0.9.1 1.3.3l-1.7 2.9c-.1.2-.1.5.2.7.1.0.2.1.2.1H8C7.8 21.5 6.4 22.7 4.7 22.7v0zM7.3 15.8 8 14.7c.1-.2.0-.5-.2-.7-.2-.1-.5.0-.6.2l-.7 1.1c-.6-.3-1.2-.4-1.8-.4-2.4.0-4.4 2-4.4 4.4.0 2.4 2 4.4 4.4 4.4 2.4.0 4.4-2 4.4-4.4C9.1 17.9 8.4 16.6 7.3 15.8z"></path></g><g><path fill="none" stroke="#000" stroke-width=".3" stroke-miterlimit="10" d="M3.1 8.6c.3.3.6.4 1 .4.4.0.8-.2 1-.4l3.5-3.5c.3-.3.4-.6.4-1 0-.4-.2-.8-.4-1L7.4 1.8c-.7-.7-1.9-.7-2.6.0l-3 3c-.7.7-.7 1.9.0 2.6L3.1 8.6zM14.4 5.2c1.3.0 2.4-1.1 2.4-2.4.0-1.3-1.1-2.4-2.4-2.4-1.3.0-2.4 1.1-2.4 2.4C12 4.1 13.1 5.2 14.4 5.2zM13 12.1l-2.8-1c-.1.0-.1-.1-.1-.1.0.0.0-.1.0-.1l1.7-1.7c0 0 .1.0.1.0l3.6 2.6c.6.5 1.6.3 2-.3.2-.3.3-.7.3-1.1-.1-.4-.3-.7-.6-1l-4.9-3.6c-.3-.3-.8-.5-1.3-.6h-.3c-.4.1-.8.2-1.1.5L5.8 9.6C5.4 9.9 5.2 10.5 5.2 11c0 .8.5 1.5 1.2 1.7l4.5 1.6-.8 4.7c-.1.4.0.8.3 1.1.2.3.6.5 1 .6.1.0.2.0.2.0.7.0 1.3-.5 1.4-1.2l1-5.9C14.1 13 13.7 12.3 13 12.1zM17.9 12.5c0-.3.2-.5.5-.5s.5-.2.5-.5c0-.3.2-.5.5-.5.3.0.5.2.5.5.0.8-.7 1.5-1.5 1.5C18.1 13 17.9 12.8 17.9 12.5zM19.3 22.7c-1.9.0-3.4-1.5-3.4-3.4.0-1.2.7-2.3 1.7-2.9l1.3 3.1c.1.2.3.3.5.3.1.0.1.0.2.0.2-.1.4-.4.3-.6L18.5 16c.3-.1.6-.1.8-.1 1.9.0 3.4 1.5 3.4 3.4S21.2 22.7 19.3 22.7zM19.3 14.9c-.4.0-.8.1-1.2.2l-.8-1.8C17.3 13.1 17.1 13 17 13c-.2.0-.3.0-.4.1l-2 2c-.2.2-.2.5.0.7.2.2.5.2.7.0l1.4-1.4.5 1.2c-1.3.8-2.3 2.2-2.3 3.8.0 2.4 2 4.4 4.4 4.4 2.4.0 4.4-2 4.4-4.4C23.7 16.9 21.8 14.9 19.3 14.9zM5.5 18.8l1.3-2.1C7.5 17.2 7.9 18 8 18.8H5.5zM4.7 22.7c-1.9.0-3.4-1.5-3.4-3.4s1.5-3.4 3.4-3.4c.5.0.9.1 1.3.3l-1.7 2.9c-.1.2-.1.3.0.5.1.2.2.2.4.2H8C7.8 21.5 6.4 22.7 4.7 22.7zM7.3 15.8 8 14.7c.1-.2.1-.5-.2-.7-.2-.1-.5-.1-.7.2l-.7 1.1c-.6-.3-1.2-.4-1.8-.4-2.4.0-4.4 2-4.4 4.4.0 2.4 2 4.4 4.4 4.4 2.4.0 4.4-2 4.4-4.4C9.1 17.9 8.4 16.6 7.3 15.8z"></path></g></svg>