<svg xmlns="http://www.w3.org/2000/svg" xmlns:xlink="http://www.w3.org/1999/xlink" style="margin-right: 8px; overflow:visible;margin-bottom:-5px" width="22" height="22" viewBox="0 0 24 24" fill="none"><path fill-rule="evenodd" clip-rule="evenodd" d="M14.015 16.435C15.602 14.713 17 12.555 17 10.4 17 7.432 14.552 5 11.5 5S6 7.432 6 10.4c0 2.155 1.398 4.313 2.985 6.035A21.715 21.715 0 0011.5 18.75a21.711 21.711 0 002.515-2.316zM11.5 20s6.5-4.5 6.5-9.6C18 6.865 15.09 4 11.5 4S5 6.865 5 10.4c0 5.1 6.5 9.6 6.5 9.6z" fill="#fff"></path><circle cx="11.5" cy="10.5" fill="#fff" r="1.5"></circle><path fill-rule="evenodd" clip-rule="evenodd" d="M14.015 16.435C15.602 14.713 17 12.555 17 10.4 17 7.432 14.552 5 11.5 5S6 7.432 6 10.4c0 2.155 1.398 4.313 2.985 6.035A21.715 21.715 0 0011.5 18.75a21.711 21.711 0 002.515-2.316zM11.5 20s6.5-4.5 6.5-9.6C18 6.865 15.09 4 11.5 4S5 6.865 5 10.4c0 5.1 6.5 9.6 6.5 9.6z" fill="#000"></path><circle cx="11.5" cy="10.5" fill="#000" r="1.5"></circle><circle cx="11.5" cy="10.5" r="6" fill="#000"></circle><circle cx="11.5" cy="10.5" r="1.5" fill="#fff"></circle><path d="M8 16v-1h7.5l-.5 1-1 1-1 1-1 .5-2-.5-1-1-1-1z" fill="#000" stroke="#000"></path></svg>