<svg width="115px" height="28px" xmlns="http://www.w3.org/2000/svg" viewBox="0 0 131 32"  fill="#2D3138"><path d="M26.2 4.3c.2 0 .4.1.4.3l3.3 9.9 1.1 3.7h.1l1-3.8L35 4.7c.1-.2.2-.3.5-.3h4.1c.3 0 .6.3.4.6l-4.5 12.4c-2.6 7.1-4.4 10.3-6.7 12.3-1.7 1.5-3.4 2.2-4.6 2.4-.2 0-.5-.1-.5-.3l-.9-3.2c-.1-.2.1-.5.3-.6.7-.2 1.6-.6 2.4-1.2.9-.6 2-1.7 2.6-3 .2-.4.3-.6.3-.9 0-.2 0-.5-.3-.9L21.5 5c-.1-.3.1-.6.4-.6h4.3zM46.8 24c-2 0-3.6-.5-4.8-1.6s-1.8-2.6-1.8-4.5.7-3.4 2.1-4.5 3.3-1.7 5.7-1.7c1 0 2.1.2 3.2.5.3.1.6-.1.6-.4v-.5c0-.9-.3-1.6-1-2.1s-1.6-.8-2.7-.8c-1.8 0-3.2.7-4.2 2.1-.2.2-.5.3-.7.1L41 8.5a.47.47 0 0 1-.1-.6c.7-1.1 1.6-1.9 2.8-2.5 1.3-.7 2.8-1 4.4-1 2.5 0 4.4.6 5.9 1.8 1.4 1.2 2.1 3 2.1 5.3v11.7a.47.47 0 0 1-.5.5h-3.4a.47.47 0 0 1-.5-.5V23c0-.4-.4-.6-.7-.4-1.1.9-2.6 1.4-4.2 1.4zm-1.4-7.8c-.6.4-.9.9-.9 1.6s.2 1.2.7 1.6 1.2.6 2.1.6c1.7 0 3.2-.5 4.3-1.4.1-.1.2-.2.2-.3v-1.6c0-.2-.1-.4-.3-.4-1.3-.4-2.4-.6-3.4-.6-1.2-.1-2.1.1-2.7.5zm13.2-8.3V4.8a.47.47 0 0 1 .5-.5h13.7a.47.47 0 0 1 .5.5V8c0 .1 0 .2-.1.3l-8.6 10.4c-.3.3 0 .8.4.8h8.3a.47.47 0 0 1 .5.5v3.1a.47.47 0 0 1-.5.5H58.9a.47.47 0 0 1-.5-.5v-3.2c0-.1 0-.2.1-.3L67 9.2c.3-.3 0-.8-.4-.8H59c-.2 0-.4-.2-.4-.5zm16.2 6.3c0-2.8.9-5.1 2.8-7s4.2-2.8 6.9-2.8 5 .9 6.9 2.8 2.8 4.2 2.8 7-.9 5.1-2.8 7C89.5 23 87.2 24 84.5 24s-5-.9-6.9-2.8c-1.8-1.9-2.8-4.2-2.8-7zm9.7 5.8c1.5 0 2.8-.5 3.7-1.6 1-1.1 1.5-2.5 1.5-4.2s-.5-3.1-1.5-4.2c-.9-1.1-2.2-1.6-3.7-1.6s-2.8.6-3.8 1.6c-1 1.1-1.5 2.5-1.5 4.2s.5 3.1 1.5 4.2S83 20 84.5 20zm16.3-6.8v9.9a.47.47 0 0 1-.5.5h-3.4a.47.47 0 0 1-.5-.5V5.3a.47.47 0 0 1 .5-.5h3.3a.47.47 0 0 1 .5.5h0c0 .4.4.6.8.4 1.1-.8 2.5-1.3 4.3-1.3 2.2 0 3.9.7 5.3 2.2 1.3 1.5 2 3.5 2 6.1v10.4a.47.47 0 0 1-.5.5h-3.4a.47.47 0 0 1-.5-.5V12.6c0-1.3-.3-2.4-1-3.2s-1.6-1.2-2.8-1.2-2.2.4-2.9 1.3c-.8.9-1.2 2.2-1.2 3.7zM121.6 24c-2 0-3.6-.5-4.8-1.6s-1.8-2.6-1.8-4.5.7-3.4 2.1-4.5 3.3-1.7 5.7-1.7c1 0 2.1.2 3.2.5.3.1.6-.1.6-.4v-.5c0-.9-.3-1.6-1-2.1s-1.6-.8-2.7-.8c-1.8 0-3.2.7-4.2 2.1-.2.2-.5.3-.7.1l-2.3-1.9a.47.47 0 0 1-.1-.6c.7-1.1 1.6-1.9 2.8-2.5 1.3-.7 2.8-1 4.4-1 2.5 0 4.4.6 5.9 1.8 1.4 1.2 2.1 3 2.1 5.3v11.7a.47.47 0 0 1-.5.5h-3.4a.47.47 0 0 1-.5-.5V23c0-.4-.4-.6-.7-.4-1 .9-2.4 1.4-4.1 1.4zm-1.3-7.8c-.6.4-.9.9-.9 1.6s.2 1.2.7 1.6 1.2.6 2.1.6c1.7 0 3.2-.5 4.3-1.4.1-.1.2-.2.2-.3v-1.6c0-.2-.1-.4-.3-.4-1.3-.4-2.4-.6-3.4-.6-1.2-.1-2.1.1-2.7.5zM9.9 0H14l9.3 23.9H19l-2-5.1H6.8l-2 5.1H.6L9.9 0zm5.7 15.1L12 5.5l-3.6 9.6h7.2z"/></svg>