<svg width="92px" height="15px" xmlns="http://www.w3.org/2000/svg" viewBox="0 0 122.4 19.8"><path d="M13.4 2.8c.1 0 .2.1.2.2l2 6.1.7 2.3h.1L17 9l1.8-6c.1-.1.1-.2.3-.2h2.5c.2 0 .4.2.2.4L19 10.8c-1.6 4.4-2.7 6.3-4.1 7.6-1 .9-2.1 1.4-2.8 1.5-.1 0-.3-.1-.3-.2l-.6-2c-.1-.1.1-.3.2-.4.4-.1 1-.4 1.5-.7.6-.4 1.2-1 1.6-1.8.1-.2.2-.4.2-.6 0-.1 0-.3-.2-.6l-4-10.4c-.1-.2.1-.4.2-.4h2.7zM26 14.9c-1.2 0-2.2-.3-2.9-1S22 12.3 22 11.1s.4-2.1 1.3-2.8 2-1 3.5-1a7.47 7.47 0 0 1 2 .3c.2.1.4-.1.4-.2v-.3c0-.6-.2-1-.6-1.3s-1-.5-1.7-.5c-1.1 0-2 .4-2.6 1.3-.1.1-.3.2-.4.1l-1.4-1.3c-.1-.1-.1-.2-.1-.4a3.53 3.53 0 0 1 1.7-1.5c.8-.4 1.7-.6 2.7-.6 1.5 0 2.7.4 3.6 1.1s1.3 1.8 1.3 3.3v7.2c0 .2-.1.3-.3.3h-2.1c-.2 0-.3-.1-.3-.3v-.1c0-.2-.2-.4-.4-.2-.7.3-1.6.7-2.6.7zm-.8-4.8a1.1 1.1 0 0 0-.6 1c0 .4.1.7.4 1s.7.4 1.3.4c1 0 2-.3 2.6-.9.1-.1.1-.1.1-.2v-1c0-.1-.1-.2-.2-.2-.8-.2-1.5-.4-2.1-.4-.6-.1-1.2 0-1.5.3zM33.3 5V3.1c0-.2.1-.3.3-.3H42c.2 0 .3.1.3.3v2c0 .1 0 .1-.1.2L37 11.6c-.2.2 0 .5.2.5h5.1c.2 0 .3.1.3.3v1.9c0 .2-.1.3-.3.3h-8.8c-.2 0-.3-.1-.3-.3v-2c0-.1 0-.1.1-.2l5.2-6.4c.2-.2 0-.5-.2-.5h-4.7c-.2.1-.3 0-.3-.2zm9.9 3.8c0-1.7.6-3.1 1.7-4.3s2.6-1.7 4.2-1.7c1.7 0 3.1.6 4.2 1.7C54.5 5.7 55 7.1 55 8.8s-.6 3.1-1.7 4.3c-1.2 1.1-2.6 1.7-4.2 1.7-1.7 0-3.1-.6-4.2-1.7s-1.7-2.5-1.7-4.3zm6 3.6c.9 0 1.7-.3 2.3-1s.9-1.5.9-2.6-.3-1.9-.9-2.6-1.4-1-2.3-1-1.7.4-2.3 1c-.6.7-.9 1.5-.9 2.6s.3 1.9.9 2.6c.5.7 1.3 1 2.3 1zm10-4.2v6.1c0 .2-.1.3-.3.3h-2.1c-.2 0-.3-.1-.3-.3V3.4c0-.2.1-.3.3-.3h2c.2 0 .3.1.3.3h0c0 .2.2.4.5.2.7-.5 1.5-.8 2.6-.8 1.4 0 2.4.4 3.3 1.4.8.9 1.2 2.1 1.2 3.7v6.4c0 .2-.1.3-.3.3h-2.1c-.2 0-.3-.1-.3-.3V7.9c0-.8-.2-1.5-.6-2s-1-.7-1.7-.7-1.4.2-1.8.8c-.5.5-.7 1.3-.7 2.2zm12.7 6.7c-1.2 0-2.2-.3-2.9-1s-1.1-1.6-1.1-2.8.4-2.1 1.3-2.8 2-1 3.5-1a7.47 7.47 0 0 1 2 .3c.1.1.3-.1.3-.2v-.3c0-.6-.2-1-.6-1.3s-1-.5-1.7-.5c-1.1 0-2 .4-2.6 1.3-.1.1-.3.2-.4.1l-1.4-1.2c-.1-.1-.1-.2-.1-.4a3.53 3.53 0 0 1 1.7-1.5c.8-.4 1.7-.6 2.7-.6 1.5 0 2.7.4 3.6 1.1s1.3 1.8 1.3 3.3v7.2c0 .2-.1.3-.3.3h-2.1c-.2 0-.3-.1-.3-.3v-.2c0-.2-.2-.4-.4-.2-.6.3-1.4.7-2.5.7zm-.8-4.8a1.1 1.1 0 0 0-.6 1c0 .4.1.7.4 1 .3.2.7.4 1.3.4 1 0 2-.3 2.6-.9.1-.1.1-.1.1-.2v-1c0-.1-.1-.2-.2-.2-.8-.2-1.5-.4-2.1-.4-.5-.1-1.1 0-1.5.3zm-67 4.7c-1.2 0-2.2-.3-2.9-1C.4 13.1 0 12.2 0 11s.4-2 1.3-2.7 2-1 3.5-1a7.47 7.47 0 0 1 2 .3c.2.1.4-.1.4-.2V7c0-.6-.2-1-.6-1.3s-1-.5-1.7-.5c-1.1 0-2 .4-2.6 1.3-.2.1-.3.2-.5.1L.5 5.3C.4 5.2.4 5 .4 4.9a3.53 3.53 0 0 1 1.7-1.5c.8-.4 1.7-.6 2.7-.6 1.5 0 2.7.4 3.6 1.1s1.3 1.8 1.3 3.3v7.2c0 .2-.1.3-.3.3h-2c-.2 0-.3-.1-.3-.3v-.1c0-.2-.2-.4-.4-.2-.7.4-1.7.7-2.6.7zm-.9-4.9a1.1 1.1 0 0 0-.6 1c0 .4.1.7.4 1 .3.2.7.4 1.3.4 1 0 2-.3 2.6-.9.1-.1.1-.1.1-.2v-1c0-.1-.1-.2-.2-.2-.7-.3-1.3-.4-2-.4-.7-.1-1.2 0-1.6.3z" fill="#fff"/><path d="M85.3 2.8h-.5c-.7 0-1.1.1-1.4.4-.3.2-.4.6-.4 1.1v.1h1.7a.65.65 0 0 1 .6.6v1.6a.65.65 0 0 1-.6.6h-1.1a.65.65 0 0 0-.6.6v6.4a.65.65 0 0 1-.6.6h-1.8a.65.65 0 0 1-.6-.6v-7h-1.3V4.5H80v-.3c0-1.4.4-2.4 1.2-3.1S83.1 0 84.5 0h.8v2.8zm7.2 4.4H92c-.9 0-1.6.3-2.1.8-.5.6-.8 1.4-.8 2.4v3.7a.68.68 0 0 1-.7.7h-1.7a.68.68 0 0 1-.7-.7v-9a.68.68 0 0 1 .7-.7H89v.9c.6-.7 1.5-1.1 2.6-1.1h.8v3zm5.3 5.1c.8 0 1.6-.2 2.1-.7.3-.2.7-.2.9 0l1 .9c.3.3.3.7 0 1a5.52 5.52 0 0 1-3.9 1.6c-1.6 0-2.9-.5-3.9-1.5s-1.5-2.3-1.5-3.8.5-2.9 1.4-3.9 2.2-1.6 3.7-1.6 2.7.5 3.6 1.6 1.3 2.3 1.3 3.7v.9h-7c.1.6.3 1 .7 1.4.4.2.9.4 1.6.4zm1-4.9c-.3-.3-.7-.4-1.2-.4s-.9.1-1.3.4c-.3.3-.6.6-.7 1.1h3.7c0-.5-.2-.9-.5-1.1zm4.4.2c0-1 .4-1.8 1.2-2.4s1.7-.9 2.8-.9c1.6 0 3 .6 4.2 1.7l-1.8 1.9c-.8-.6-1.7-1-2.5-1-.3 0-.5.1-.7.2s-.3.2-.3.4.2.4.7.5l1.5.3c2.7.6 3.8 2 3.3 4.2-.1.2-.2.5-.3.7-.8 1.2-2.1 1.8-3.8 1.8-1 0-2-.2-2.9-.7-.7-.4-1.3-.9-1.7-1.4l1.8-1.8c.9.9 1.9 1.3 3 1.3.3 0 .6-.1.8-.2a.55.55 0 0 0 .3-.5c0-.3-.3-.5-.9-.6l-1.4-.3c-2.2-.5-3.3-1.6-3.3-3.2zm12.6 2.1v4.5a.68.68 0 0 1-.7.7h-1.6a.68.68 0 0 1-.7-.7V.7a.68.68 0 0 1 .7-.7h1.6a.68.68 0 0 1 .7.7v3.1c0 .5.5.8 1 .6.4-.2.9-.2 1.4-.2 1.3 0 2.3.4 3.1 1.2s1.1 1.9 1.1 3.4v5.3a.68.68 0 0 1-.7.7h-1.6a.68.68 0 0 1-.7-.7V9c0-.6-.1-1.1-.4-1.5s-.7-.6-1.3-.6c-1.3.1-1.9 1-1.9 2.8z" fill="#0c9"/></svg>